# xmcd
#
# Track frame offsets: 
#        150
#        19268
#        33288
#        55530
#        76162
#        95376
#        122871
#        142877
#        164659
#
# Disc length: 2461 seconds
#
# Revision: 1
# Processed by: cddbd v1.5.2PL0 Copyright (c) Steve Scherf et al.
# Submitted via: ExactAudioCopy v1.0b3
#
DISCID=69099b09
DTITLE=Chenmin - SlowBreath
DYEAR=1900
DGENRE=
TTITLE0=あなたの生まれた朝
TTITLE1=Nessun Dorma
TTITLE2=天上的風
TTITLE3=恋雲
TTITLE4=万華鏡
TTITLE5=道
TTITLE6=アメイジング・グレイス
TTITLE7=夕日
TTITLE8=燕になりたい
EXTD=
EXTT0=
EXTT1=
EXTT2=
EXTT3=
EXTT4=
EXTT5=
EXTT6=
EXTT7=
EXTT8=
PLAYORDER=
